<svg width="84" height="39" viewBox="0 0 84 39" fill="none" xmlns="http://www.w3.org/2000/svg">
<path fill-rule="evenodd" clip-rule="evenodd" d="M0 12.3763V18.2335H17.133C19.1244 18.2335 21.6687 16.392 21.6687 13.3459C21.6687 12.1207 22.1373 11.3216 20.6973 9.70099L18.5058 7.1044C17.2501 5.93297 18.6559 5.93297 19.7106 5.93297H26.9443V18.2335H32.6811V5.93297H40.413V0.665226H15.3759C12.3297 0.665226 10.8401 3.5901 10.9239 5.11296C11.0082 6.63582 11.2883 8.55179 13.8197 10.8534C16.1287 12.9523 12.6765 12.3763 12.3297 12.3763H0ZM53.0983 0.665226H43.8435L38.6554 18.2339H44.4292L45.3659 15.7739H51.4573L52.3616 18.2339H58.0174L53.0983 0.665226ZM46.6549 11.5563L48.6464 5.11296L50.5211 11.5563H46.6549ZM76.2931 12.3763C74.0674 12.3763 74.0674 11.5563 74.0674 11.5563C75.9745 11.5563 77.6655 8.77774 77.6655 5.93297C77.6655 3.08819 74.8874 0.665226 72.6607 0.665226H60.2097V18.2339H66.5364V12.3768C66.5364 12.3768 69.2302 15.5396 70.636 16.8282C72.0421 18.1168 72.1588 18.2339 74.0669 18.2339H83.9981V12.3768C83.9991 12.3763 78.5188 12.3763 76.2931 12.3763ZM70.5526 8.27629H66.5373V5.11296H70.5526C72.3936 5.11296 72.7121 8.27629 70.5526 8.27629ZM0 20.4592H6.47251L8.11251 26.3173L9.63537 20.4592H16.4301L18.1873 26.3173L19.9449 20.4592H25.5678L20.413 38.0321H15.2587L13.0001 29.714L10.4554 38.0321H5.18393L0 20.4592ZM38.8513 20.5606H29.5965L24.4088 38.1288H30.1822L31.1193 35.6693H37.2113L38.1155 38.1288H43.7717L38.8513 20.5606ZM32.4084 31.4512L34.3998 25.0079L36.2741 31.4512H32.4084ZM76.4098 25.7316C75.3564 25.7316 74.2077 25.8547 75.4638 27.0257L77.6557 29.6227C79.0953 31.2433 79.0721 31.9188 79.0721 33.1449C79.0721 36.1906 76.0588 38.0321 74.0674 38.0321L60.225 38.1251C58.3179 38.1251 58.2012 38.0084 56.795 36.7199C55.3897 35.4313 52.695 32.268 52.695 32.268V38.1251H46.3693V20.5569H58.8202C61.046 20.5569 63.825 22.9803 63.825 25.8246C63.825 28.6699 62.134 31.448 60.226 31.448C60.226 31.448 61.0649 32.2916 62.4707 32.2916C63.8768 32.2916 69.2895 32.2971 69.2895 32.2971C69.6358 32.2971 73.0876 32.8731 70.779 30.7743C68.2477 28.4726 67.9676 26.5576 67.8833 25.0347C67.799 23.5119 69.1159 20.4596 72.1607 20.4596H84V25.732L76.4098 25.7316ZM56.7107 28.1675H52.6945V25.0042H56.7107C58.5521 25.0042 58.8702 28.1675 56.7107 28.1675Z" fill="#FAFAFA"/>
</svg>
