<svg width="1239" height="122" viewBox="0 0 1239 122" fill="none" xmlns="http://www.w3.org/2000/svg">
<path fill-rule="evenodd" clip-rule="evenodd" d="M0 81.5572V121.997H118.923C132.746 121.997 150.406 109.283 150.406 88.2513C150.406 79.7926 153.659 74.2749 143.664 63.0861L128.452 45.1585C119.736 37.0705 129.494 37.0705 136.815 37.0705H187.025V121.997H226.845V37.0705H280.514V0.700506H106.727C85.5824 0.700506 75.2433 20.8947 75.8251 31.409C76.41 41.9233 78.3544 55.1517 95.9247 71.043C111.952 85.5341 87.9896 81.5572 85.5824 81.5572H0ZM368.565 0.700506H304.325L268.314 122H308.391L314.893 105.015H357.175L363.451 122H402.709L368.565 0.700506ZM323.84 75.8957L337.663 31.409L350.676 75.8957H323.84ZM529.564 81.5572C514.115 81.5572 514.115 75.8957 514.115 75.8957C527.353 75.8957 539.09 56.7117 539.09 37.0705C539.09 17.4294 519.806 0.700506 504.351 0.700506H417.926V122H461.841V81.5605C461.841 81.5605 480.539 103.398 490.297 112.295C500.057 121.191 500.867 122 514.111 122H583.046V81.5605C583.046 81.5605 545.013 81.5572 529.564 81.5572ZM489.718 53.2496H461.847V31.409H489.718C502.497 31.409 504.708 53.2496 489.718 53.2496ZM655.941 0H700.868L712.252 40.446L722.822 0H769.986L782.182 40.446L794.382 0H833.412L797.631 121.328H761.855L746.177 63.8977L728.514 121.328H691.924L655.941 0ZM925.615 0.700098H861.376L825.367 121.996H865.441L871.946 105.015H914.231L920.508 121.996H959.768L925.615 0.700098ZM880.893 75.8921L894.716 31.4054L907.726 75.8921H880.893ZM1186.31 36.402C1179 36.402 1171.03 37.2523 1179.75 45.3371L1194.96 63.2679C1204.96 74.4567 1204.79 79.1209 1204.79 87.586C1204.79 108.615 1183.88 121.328 1170.06 121.328L1073.97 121.971C1060.74 121.971 1059.93 121.165 1050.17 112.269C1040.41 103.372 1021.71 81.5313 1021.71 81.5313V121.971H977.798V0.674537H1064.22C1079.67 0.674537 1098.96 17.4066 1098.96 37.0446C1098.96 56.6889 1087.22 75.8697 1073.98 75.8697C1073.98 75.8697 1079.8 81.6943 1089.56 81.6943C1099.32 81.6943 1136.89 81.7327 1136.89 81.7327C1139.3 81.7327 1163.26 85.7095 1147.23 71.2184C1129.66 55.3271 1127.72 42.1051 1127.13 31.5908C1126.55 21.0765 1135.69 0.00318687 1156.82 0.00318687H1239V36.4052L1186.31 36.402ZM1049.58 53.2204H1021.7V31.3798H1049.58C1062.36 31.3798 1064.57 53.2204 1049.58 53.2204Z" fill="#FAFAFA"/>
</svg>
